<svg xmlns="http://www.w3.org/2000/svg" viewBox="0 0 1600 900" width="1600" height="900" role="img" aria-label="Trading engine">
  <rect x="4" y="4" width="1592" height="892" rx="34" fill="none" stroke="#a3a3a3" stroke-width="4" stroke-dasharray="14 14" opacity="0.7"/>
  <g font-family="ui-sans-serif, -apple-system, BlinkMacSystemFont, 'Segoe UI', Helvetica, Arial, sans-serif">
    <text x="92" y="150" fill="#8a8a8a" font-size="42" font-weight="600" letter-spacing="10">2023–24</text>
    <g transform="translate(1248, 108)">
      <rect x="0" y="0" width="260" height="62" rx="31" fill="none" stroke="#a3a3a3" stroke-width="3" stroke-dasharray="10 8"/>
      <text x="130" y="41" fill="#8a8a8a" font-size="30" font-weight="600" letter-spacing="2" text-anchor="middle">LIVE · OSS</text>
    </g>
    <text x="92" y="490" fill="#8a8a8a" font-size="76" font-weight="700" letter-spacing="-1">Trading engine</text>
    <line x1="92" y1="560" x2="420" y2="560" stroke="#a3a3a3" stroke-width="4" stroke-dasharray="12 12"/>
    <text x="92" y="650" fill="#8a8a8a" font-size="34" font-weight="500" opacity="0.9">Python · REST / WebSocket APIs</text>
  </g>
  <g><line x1="965" y1="690" x2="1445" y2="690" stroke="#a3a3a3" stroke-width="3" stroke-dasharray="10 10"/><line x1="1000" y1="470" x2="1000" y2="600" stroke="#8a8a8a" stroke-width="4" opacity="0.7"/><rect x="983" y="500" width="34" height="75" rx="4" fill="#8a8a8a" opacity="0.4"/><line x1="1078" y1="430" x2="1078" y2="545" stroke="#8a8a8a" stroke-width="4" opacity="0.7"/><rect x="1061" y="455" width="34" height="65" rx="4" fill="#8a8a8a" opacity="0.49"/><line x1="1156" y1="465" x2="1156" y2="610" stroke="#8a8a8a" stroke-width="4" opacity="0.7"/><rect x="1139" y="490" width="34" height="95" rx="4" fill="#8a8a8a" opacity="0.5800000000000001"/><line x1="1234" y1="350" x2="1234" y2="505" stroke="#8a8a8a" stroke-width="4" opacity="0.7"/><rect x="1217" y="380" width="34" height="100" rx="4" fill="#8a8a8a" opacity="0.67"/><line x1="1312" y1="385" x2="1312" y2="470" stroke="#8a8a8a" stroke-width="4" opacity="0.7"/><rect x="1295" y="400" width="34" height="50" rx="4" fill="#8a8a8a" opacity="0.76"/><line x1="1390" y1="275" x2="1390" y2="430" stroke="#8a8a8a" stroke-width="4" opacity="0.7"/><rect x="1373" y="300" width="34" height="105" rx="4" fill="#8a8a8a" opacity="0.85"/></g>
</svg>
